<?xml version="1.0" standalone="no"?>
<!DOCTYPE svg PUBLIC "-//W3C//DTD SVG 20010904//EN"
 "http://www.w3.org/TR/2001/REC-SVG-20010904/DTD/svg10.dtd">
<svg version="1.0" xmlns="http://www.w3.org/2000/svg"
 width="1080.000000pt" height="1080.000000pt" viewBox="0 0 1080.000000 1080.000000"
 preserveAspectRatio="xMidYMid meet">
<metadata>
Created by potrace 1.10, written by Peter Selinger 2001-2011
</metadata>
<g transform="translate(0.000000,1080.000000) scale(0.100000,-0.100000)"
fill="#000000" stroke="none">
<path d="M2220 10210 c0 -26 -3 -68 -6 -94 -6 -42 -5 -46 15 -46 16 0 21 6 21
25 0 23 3 24 44 23 56 -3 86 21 86 68 0 43 -27 61 -102 66 l-58 5 0 -47z m118
0 c2 0 2 -12 0 -27 -3 -24 -8 -28 -40 -31 -37 -3 -38 -2 -38 31 0 43 5 47 43
36 18 -5 33 -9 35 -9z"/>
<path d="M1773 10242 c-7 -4 -14 -57 -19 -140 -6 -119 -5 -132 10 -132 13 0
16 12 17 68 0 37 4 100 8 140 7 73 6 78 -16 64z"/>
<path d="M2015 10203 c-9 -27 -26 -70 -36 -97 -11 -27 -17 -51 -15 -53 10 -11
46 10 46 26 0 14 11 20 48 24 39 5 49 3 61 -14 7 -10 22 -19 32 -19 23 0 23 4
5 33 -31 49 -67 113 -73 130 -3 9 -15 17 -28 17 -19 0 -27 -9 -40 -47z m59
-25 c22 -43 20 -48 -14 -48 -16 0 -30 4 -30 9 0 11 21 71 25 71 2 0 11 -14 19
-32z"/>
<path d="M2466 10222 c-2 -4 -9 -32 -14 -62 -6 -30 -15 -68 -21 -83 -15 -38
-15 -37 14 -37 20 0 25 5 25 24 0 24 2 24 53 19 64 -6 90 15 85 69 -2 27 -10
36 -38 49 -42 20 -97 31 -104 21z m101 -60 c18 -22 -2 -52 -35 -52 -41 0 -50
10 -40 48 8 29 12 32 36 26 15 -4 32 -13 39 -22z"/>
<path d="M2771 10044 c-23 -41 -41 -80 -41 -85 0 -14 97 -59 128 -59 60 0 109
79 81 129 -13 23 -103 91 -121 91 -3 0 -25 -34 -47 -76z m99 11 c59 -30 43
-115 -21 -115 -32 0 -69 15 -69 29 0 11 50 101 56 101 3 0 18 -7 34 -15z"/>
<path d="M1425 10052 c-27 -15 -52 -28 -54 -29 -3 -1 75 -150 86 -163 7 -8 95
45 114 69 29 36 25 87 -10 122 -37 37 -70 37 -136 1z m107 -29 c10 -9 18 -30
18 -47 0 -24 -8 -36 -34 -53 l-35 -22 -31 55 c-17 31 -30 57 -28 59 36 28 84
32 110 8z"/>
<path d="M3009 9935 c-19 -25 -42 -55 -51 -67 -10 -11 -18 -25 -18 -29 0 -4
24 -26 52 -48 39 -29 56 -37 65 -29 10 8 4 17 -27 39 -44 32 -44 32 -29 60 10
19 12 19 49 -11 53 -42 68 -19 16 24 -29 25 -34 34 -24 44 17 17 25 15 64 -15
26 -19 38 -23 46 -15 7 7 10 13 7 15 -39 32 -104 77 -109 77 -4 0 -23 -20 -41
-45z"/>
<path d="M1272 9955 c-11 -13 -7 -23 25 -62 l38 -46 -35 7 c-76 16 -100 18
-124 12 -25 -6 -25 -7 36 -80 52 -63 65 -73 80 -65 17 9 15 14 -21 57 -22 25
-39 47 -38 49 1 1 38 -5 80 -14 103 -20 113 -11 59 54 -92 109 -86 104 -100
88z"/>
<path d="M3194 9824 c-9 -21 -24 -57 -34 -79 -47 -106 -35 -117 81 -75 46 17
90 33 98 36 12 4 12 7 -1 20 -13 13 -22 12 -83 -11 -37 -14 -69 -24 -71 -23
-1 2 10 33 26 69 24 56 26 68 14 84 -13 17 -15 16 -30 -21z"/>
<path d="M1046 9738 l-46 -53 37 -33 c21 -17 54 -46 74 -62 l37 -30 25 33 c14
17 35 43 47 55 17 18 20 26 10 35 -9 9 -20 2 -49 -31 -34 -39 -38 -41 -53 -25
-16 15 -15 19 13 54 38 49 19 67 -22 21 -31 -35 -39 -38 -56 -21 -9 9 -5 21
18 48 29 35 37 61 20 61 -5 0 -30 -24 -55 -52z"/>
<path d="M3308 9601 c-37 -25 -67 -50 -68 -55 0 -6 40 -66 77 -115 2 -3 8 0
14 6 8 8 3 23 -17 53 -28 41 -28 43 -9 56 21 16 21 16 59 -41 11 -16 17 -17
26 -8 10 9 7 18 -14 44 -21 24 -24 34 -15 45 19 23 33 16 59 -26 24 -38 45
-48 45 -21 0 18 -68 111 -80 110 -5 -1 -40 -22 -77 -48z"/>
<path d="M940 9610 c-8 -15 -6 -34 6 -76 9 -30 13 -58 11 -61 -3 -3 -20 5 -37
17 -28 20 -34 21 -46 8 -13 -13 -5 -21 67 -67 62 -40 84 -49 90 -39 13 20 11
26 -11 38 -11 6 -20 19 -20 29 0 14 10 20 44 25 24 4 52 16 62 27 17 19 17 19
-53 13 l-71 -7 -12 57 c-6 31 -13 56 -15 56 -3 0 -9 -9 -15 -20z"/>
<path d="M3430 9424 c-41 -20 -77 -38 -79 -40 -6 -6 51 -124 60 -124 19 0 18
22 -1 60 l-21 40 71 33 c44 20 69 37 68 46 -5 24 -20 22 -98 -15z"/>
<path d="M817 9372 c-21 -22 -27 -38 -27 -74 0 -39 5 -50 31 -72 70 -59 159
-10 159 89 0 38 0 38 -24 29 -11 -4 -13 -14 -10 -34 7 -34 -24 -70 -61 -70
-32 0 -65 33 -65 65 0 14 9 34 20 45 20 20 27 50 12 50 -5 0 -20 -13 -35 -28z"/>
<path d="M3473 9236 c-24 -21 -28 -31 -27 -75 1 -69 30 -101 92 -101 35 0 49
6 74 30 27 28 30 36 25 73 -12 85 -103 126 -164 73z m109 -33 c10 -9 18 -30
18 -49 0 -27 -6 -36 -29 -49 -35 -18 -74 -7 -90 24 -15 27 -14 35 10 65 24 30
63 34 91 9z"/>
<path d="M818 9127 c-79 -16 -97 -23 -102 -40 -5 -21 -2 -25 103 -104 52 -39
56 -41 59 -21 2 12 -3 27 -12 34 -19 13 -19 17 -5 67 7 26 16 37 29 37 16 0
39 36 28 44 -1 1 -47 -7 -100 -17z m14 -62 c-6 -36 -15 -38 -50 -11 -37 27
-32 36 18 36 34 0 37 -2 32 -25z"/>
<path d="M3543 8987 c-41 -8 -53 -14 -53 -28 0 -15 5 -17 29 -13 27 6 28 4 34
-37 9 -68 57 -97 105 -63 19 13 22 24 22 85 l0 69 -42 -1 c-24 -1 -67 -6 -95
-12z m107 -61 c0 -61 -60 -75 -68 -17 -6 36 5 51 38 51 27 0 30 -3 30 -34z"/>
<path d="M786 8903 c-13 -13 -20 -15 -23 -5 -7 19 -61 15 -71 -5 -5 -10 -12
-46 -15 -80 l-5 -62 93 -3 94 -3 5 29 c12 58 6 106 -14 126 -25 25 -40 25 -64
3z m-38 -35 c7 -7 12 -27 12 -45 0 -30 -3 -33 -30 -33 -30 0 -31 1 -24 38 10
56 18 64 42 40z m86 -4 c9 -23 7 -72 -2 -78 -5 -3 -19 -2 -31 1 -20 5 -22 10
-16 42 4 20 9 39 11 43 9 14 32 9 38 -8z"/>
<path d="M3500 8696 c0 -58 3 -76 14 -76 9 0 16 18 21 56 6 49 9 55 28 52 19
-3 22 -9 20 -50 -1 -36 2 -48 13 -48 10 0 14 13 14 45 0 41 2 45 25 45 23 0
25 -3 25 -50 0 -35 4 -50 14 -50 9 0 15 20 19 67 4 37 6 68 4 69 -1 1 -46 4
-99 8 l-98 7 0 -75z"/>
<path d="M646 8563 c4 -15 30 -23 135 -44 114 -22 129 -23 129 -9 0 16 -55 32
-180 50 -30 5 -63 11 -72 15 -13 5 -15 2 -12 -12z"/>
<path d="M3492 8547 c2 -14 11 -23 26 -25 38 -6 20 -52 -27 -67 -19 -6 -36
-33 -26 -43 3 -3 17 0 31 7 22 10 29 8 56 -14 37 -31 58 -32 87 -1 20 21 48
112 38 122 -4 4 -112 30 -155 38 -30 5 -33 4 -30 -17z m126 -43 c26 -7 28 -30
6 -62 -29 -42 -68 -15 -57 41 6 28 12 31 51 21z"/>
<path d="M823 8335 c-17 -7 -39 -28 -48 -45 -15 -29 -15 -35 5 -96 12 -35 25
-64 30 -64 5 0 45 14 89 31 91 34 88 28 50 117 -14 31 -28 47 -54 57 -40 18
-32 18 -72 0z m84 -47 c5 -7 14 -26 21 -41 11 -26 10 -28 -16 -37 -15 -6 -35
-15 -44 -20 -27 -15 -46 -12 -58 9 -15 29 -12 62 7 83 19 21 76 24 90 6z"/>
<path d="M3409 8254 c-11 -14 -10 -18 6 -30 17 -13 21 -13 32 2 9 13 10 21 2
31 -15 17 -24 16 -40 -3z"/>
<path d="M928 8091 c-42 -25 -77 -48 -77 -51 -1 -3 3 -11 8 -19 7 -12 17 -9
56 13 26 15 49 26 51 23 2 -2 -4 -24 -14 -48 -43 -101 -36 -134 20 -97 20 13
57 36 83 51 43 25 46 30 33 44 -14 13 -20 12 -57 -13 -23 -15 -44 -24 -47 -21
-4 3 5 35 19 71 19 50 22 68 13 79 -9 11 -24 5 -88 -32z"/>
<path d="M3261 8076 c-10 -12 -6 -15 21 -21 56 -12 115 -45 152 -85 28 -31 37
-36 46 -25 9 11 3 22 -25 54 -57 63 -169 107 -194 77z"/>
<path d="M3259 7974 c-10 -12 -9 -17 7 -28 10 -8 30 -23 44 -35 l25 -22 -57 7
c-56 6 -58 6 -58 -17 1 -13 7 -35 15 -49 26 -46 15 -52 -30 -15 -40 33 -65 39
-65 15 0 -5 32 -35 70 -66 84 -68 103 -64 76 13 -35 97 -38 92 43 78 106 -18
109 -3 17 73 -64 54 -76 60 -87 46z"/>
<path d="M1110 7934 c0 -3 14 -23 30 -44 35 -44 37 -55 13 -65 -13 -4 -26 3
-45 26 -22 26 -31 30 -40 21 -9 -9 -5 -19 20 -45 l32 -32 -22 -14 c-20 -13
-24 -11 -52 22 -21 25 -35 34 -44 28 -10 -6 -3 -20 29 -57 23 -27 45 -50 50
-52 10 -4 137 100 138 113 1 16 -79 105 -95 105 -8 0 -14 -3 -14 -6z"/>
<path d="M3050 7749 c-19 -17 -44 -37 -55 -45 -15 -11 -16 -17 -7 -26 9 -9 21
-4 53 21 38 31 42 32 57 17 16 -16 15 -19 -16 -47 -22 -20 -32 -36 -28 -46 6
-13 13 -10 42 18 35 33 36 34 50 14 14 -19 12 -22 -23 -52 -29 -25 -35 -35
-26 -44 12 -12 20 -6 107 72 7 6 -95 140 -113 146 -3 2 -22 -11 -41 -28z"/>
<path d="M1250 7705 c-49 -60 -57 -64 -75 -38 -8 11 -18 14 -31 9 -16 -7 -10
-15 46 -66 50 -44 68 -56 78 -47 10 8 8 15 -14 33 l-26 23 51 58 c28 31 50 62
48 68 -9 25 -35 11 -77 -40z"/>
<path d="M1361 7590 c-45 -72 -49 -81 -33 -89 15 -8 23 -1 46 35 32 51 46 49
46 -5 0 -56 10 -99 25 -105 9 -3 32 24 64 72 43 67 47 79 35 92 -12 12 -16 12
-29 -5 -8 -11 -22 -36 -32 -55 l-17 -35 -9 50 c-4 28 -10 64 -13 82 -8 57 -29
47 -83 -37z"/>
<path d="M2917 7648 c-17 -9 -17 -12 -3 -33 9 -14 16 -26 16 -28 0 -12 -44
-14 -75 -4 -27 8 -39 7 -47 -1 -9 -9 -5 -15 19 -24 28 -10 31 -16 26 -40 -8
-41 20 -78 58 -78 30 0 119 45 119 59 0 5 -18 36 -40 70 -22 34 -40 66 -40 71
0 15 -15 19 -33 8z m41 -100 c22 -27 18 -52 -11 -66 -22 -11 -31 -11 -43 -2
-21 18 -17 47 8 64 27 19 33 20 46 4z"/>
<path d="M2722 7541 c-10 -6 -11 -14 -4 -27 5 -11 17 -36 26 -57 l17 -39 -58
33 c-32 18 -63 36 -69 41 -10 7 -44 2 -44 -8 0 -7 41 -110 50 -126 6 -10 10
-25 10 -33 0 -17 9 -19 29 -6 12 8 11 17 -7 60 -11 28 -18 51 -15 51 4 0 35
-16 70 -35 74 -41 97 -39 81 8 -6 18 -14 37 -18 42 -3 6 -14 31 -24 58 -18 49
-22 52 -44 38z"/>
<path d="M1613 7520 c-26 -11 -53 -59 -53 -94 0 -41 48 -86 97 -93 39 -5 46
-2 78 30 24 24 35 44 35 64 0 71 -85 122 -157 93z m92 -45 c29 -28 31 -51 9
-83 -31 -44 -114 -19 -114 35 0 27 41 73 65 73 9 0 27 -11 40 -25z"/>
<path d="M2509 7523 c-21 -5 -32 -60 -23 -110 9 -48 50 -132 69 -139 29 -12
34 7 10 43 -33 48 -48 107 -43 165 3 27 5 47 4 47 -1 -1 -8 -3 -17 -6z"/>
<path d="M1845 7440 c14 -28 14 -30 -10 -54 -50 -50 -22 -102 66 -122 59 -13
64 -8 75 77 4 30 11 64 15 77 5 12 5 22 0 22 -5 0 -16 3 -25 6 -12 5 -16 0
-16 -18 0 -14 -3 -27 -6 -30 -13 -13 -44 7 -59 38 -10 22 -23 34 -36 34 -18 0
-19 -2 -4 -30z m87 -110 c-2 -19 -5 -36 -6 -37 -7 -7 -61 16 -69 29 -19 29 -1
50 40 46 37 -3 38 -4 35 -38z"/>
<path d="M2140 7391 l0 -41 -45 7 c-38 5 -45 3 -45 -11 0 -12 10 -16 45 -16
43 0 45 -1 45 -30 0 -30 -1 -30 -55 -30 -40 0 -55 -4 -55 -14 0 -10 20 -15 73
-18 39 -3 73 -4 74 -4 1 1 3 44 4 96 3 91 2 95 -19 98 -20 3 -22 -1 -22 -37z"/>
<path d="M2280 7411 c0 -26 17 -36 35 -21 18 15 8 40 -16 40 -12 0 -19 -7 -19
-19z"/>
</g>
</svg>
